<svg width="51" height="48" viewBox="0 0 51 48" fill="none" xmlns="http://www.w3.org/2000/svg">
<path d="M13.8337 23.0218C14.5886 21.9361 14.3154 20.4478 13.2369 19.6929C12.8271 19.4125 12.3669 19.2687 11.9068 19.2687C11.1374 19.2615 10.3825 19.621 9.90796 20.2968C9.15302 21.3825 9.42624 22.8708 10.5047 23.6257C10.9145 23.9062 11.3747 24.05 11.8349 24.05C12.6042 24.0571 13.3591 23.6976 13.8337 23.0218Z" fill="url(#paint0_linear_1046_6750)"/>
<path d="M31.9671 30.2547C31.9599 30.2547 31.9599 30.2547 31.9671 30.2547C31.9527 30.3051 32.722 30.9665 33.4266 31.5777C36.468 34.2092 38.7615 36.6897 38.3445 37.2865C38.2511 37.4231 38.0569 37.4806 37.7837 37.4734C35.8209 37.4159 29.5153 34.0294 22.5051 29.1619C19.3056 26.9402 16.4512 24.7544 14.2152 22.8491C14.1577 22.957 14.1001 23.0576 14.0282 23.1583C13.8701 23.3812 13.6831 23.5825 13.4746 23.7407C15.8904 25.8042 19.0324 28.184 22.3901 30.5136C30.2774 35.9923 37.4314 39.7238 39.7178 39.6735C40.0485 39.6663 40.2714 39.5801 40.3937 39.4147C41.1126 38.3865 37.8916 34.885 31.9671 30.2547Z" fill="url(#paint1_linear_1046_6750)"/>
<path d="M9.69928 20.1603C9.70647 20.1603 9.70647 20.1603 9.69928 20.1603C9.92936 19.8296 10.2241 19.5707 10.5549 19.3766C10.4542 19.2615 10.3679 19.1609 10.3392 19.1249C9.56986 18.2046 9.14566 17.4569 9.35416 17.1549C9.44763 17.0255 9.62738 16.968 9.9006 16.968C10.296 16.9752 10.8712 17.119 11.5974 17.3922C11.5902 17.3922 11.583 17.385 11.583 17.385C11.5902 17.385 11.5974 17.3922 11.6046 17.3922C10.2313 16.817 9.16003 16.5078 8.48418 16.5078C8.13188 16.5078 7.88742 16.5941 7.76519 16.7666C7.44884 17.2196 8.05279 18.2981 9.38292 19.7936C9.41887 19.8439 9.55548 19.9949 9.69928 20.1603Z" fill="url(#paint2_linear_1046_6750)"/>
<path d="M18.9377 18.8445L19.5345 18.6504L18.9377 18.4563L19.3907 17.8451L18.8371 18.255L18.5926 16.5078L18.3338 18.255L17.7874 17.8451L18.2403 18.4563L17.6436 18.6504L18.2403 18.8445L17.7802 19.4557L18.3338 19.0387L18.5854 20.793L18.8371 19.0387L19.3907 19.4557L18.9377 18.8445Z" fill="url(#paint3_linear_1046_6750)"/>
<path d="M29.2561 38.2863L29.7954 38.1856L29.2633 38.0778L29.6803 37.5889L29.1195 37.9555L29.0045 37.2222L28.8823 37.9555L28.3214 37.5889L28.7385 38.0778L28.1992 38.1784L28.7385 38.2863L28.3214 38.7752L28.8751 38.4085L28.9973 39.1419L29.1195 38.4085L29.6732 38.7752L29.2561 38.2863Z" fill="url(#paint4_linear_1046_6750)"/>
<path d="M24.0864 35.5253C28.1883 35.5253 31.5135 32.2 31.5135 28.0981C31.5135 23.9962 28.1883 20.6709 24.0864 20.6709C19.9844 20.6709 16.6592 23.9962 16.6592 28.0981C16.6592 32.2 19.9844 35.5253 24.0864 35.5253Z" fill="url(#paint5_linear_1046_6750)"/>
<path d="M13.8337 23.0213C14.5886 21.9356 14.3154 20.4473 13.2369 19.6924C12.8271 19.412 12.3669 19.2682 11.9068 19.2682C11.1374 19.261 10.3825 19.6205 9.90796 20.2963C9.15302 21.382 9.42624 22.8703 10.5047 23.6253C10.9145 23.9057 11.3747 24.0495 11.8349 24.0495C12.6042 24.0567 13.3591 23.6972 13.8337 23.0213Z" fill="url(#paint6_linear_1046_6750)"/>
<path d="M31.9671 30.2542C31.9599 30.2542 31.9599 30.2542 31.9671 30.2542C31.9527 30.3046 32.722 30.966 33.4266 31.5772C36.468 34.2087 38.7615 36.6892 38.3445 37.286C38.2511 37.4226 38.0569 37.4801 37.7837 37.4729C35.8209 37.4154 29.5153 34.0289 22.5051 29.1614C19.3056 26.9397 16.4512 24.754 14.2152 22.8486C14.1577 22.9565 14.1001 23.0571 14.0282 23.1578C13.8701 23.3807 13.6831 23.582 13.4746 23.7402C15.8904 25.8037 19.0324 28.1835 22.3901 30.5131C30.2774 35.9918 37.4314 39.7234 39.7178 39.673C40.0485 39.6658 40.2714 39.5796 40.3937 39.4142C41.1126 38.386 37.8916 34.8845 31.9671 30.2542Z" fill="url(#paint7_linear_1046_6750)"/>
<path d="M9.69928 20.1598C9.70647 20.1598 9.70647 20.1598 9.69928 20.1598C9.92936 19.8291 10.2241 19.5702 10.5549 19.3761C10.4542 19.2611 10.3679 19.1604 10.3392 19.1245C9.56986 18.2041 9.14566 17.4564 9.35416 17.1544C9.44763 17.025 9.62738 16.9675 9.9006 16.9675C10.296 16.9747 10.8712 17.1185 11.5974 17.3917C11.5902 17.3917 11.583 17.3845 11.583 17.3845C11.5902 17.3845 11.5974 17.3917 11.6046 17.3917C10.2313 16.8165 9.16003 16.5073 8.48418 16.5073C8.13188 16.5073 7.88742 16.5936 7.76519 16.7662C7.44884 17.2191 8.05279 18.2976 9.38292 19.7931C9.41887 19.8434 9.55548 19.9944 9.69928 20.1598Z" fill="url(#paint8_linear_1046_6750)"/>
<path d="M34.3396 23.0218C33.5847 21.9361 33.8579 20.4478 34.9364 19.6929C35.3462 19.4125 35.8063 19.2687 36.2665 19.2687C37.0358 19.2615 37.7908 19.621 38.2653 20.2968C39.0202 21.3825 38.747 22.8708 37.6685 23.6257C37.2587 23.9062 36.7986 24.05 36.3384 24.05C35.5691 24.0571 34.8141 23.6976 34.3396 23.0218Z" fill="url(#paint9_linear_1046_6750)"/>
<path d="M16.2063 30.2542C16.2063 30.2542 16.2135 30.2542 16.2063 30.2542C16.2207 30.3046 15.4514 30.966 14.7468 31.5772C11.7054 34.2087 9.41183 36.6892 9.82885 37.286C9.92232 37.4226 10.1164 37.4801 10.3897 37.4729C12.3525 37.4154 18.6581 34.0289 25.6682 29.1614C28.8677 26.9397 31.7221 24.754 33.9582 22.8486C34.0157 22.9565 34.0732 23.0571 34.1451 23.1578C34.3033 23.3807 34.4903 23.582 34.6988 23.7402C32.283 25.8037 29.141 28.1835 25.7833 30.5131C17.8959 35.9918 10.742 39.7234 8.45557 39.673C8.12484 39.6658 7.90195 39.5796 7.77972 39.4142C7.05354 38.386 10.2818 34.8845 16.2063 30.2542Z" fill="url(#paint10_linear_1046_6750)"/>
<path d="M38.4737 20.1598C38.4665 20.1598 38.4665 20.1598 38.4737 20.1598C38.2436 19.8291 37.9488 19.5702 37.6181 19.3761C37.7187 19.2611 37.805 19.1604 37.8338 19.1245C38.6031 18.2041 39.0273 17.4564 38.8188 17.1544C38.7253 17.025 38.5456 16.9675 38.2724 16.9675C37.8769 16.9747 37.3017 17.1185 36.5755 17.3917C36.5827 17.3917 36.5899 17.3845 36.5899 17.3845C36.5827 17.3845 36.5755 17.3917 36.5684 17.3917C37.9416 16.8165 39.0129 16.5073 39.6888 16.5073C40.0411 16.5073 40.2855 16.5936 40.4078 16.7662C40.7241 17.2191 40.1202 18.2976 38.79 19.7931C38.7541 19.8434 38.6175 19.9944 38.4737 20.1598Z" fill="url(#paint11_linear_1046_6750)"/>
<path d="M26.5879 43.1753C26.8468 42.7942 26.9978 42.3341 27.005 41.838C27.0122 40.515 25.948 39.4437 24.6251 39.4365C23.7983 39.4365 23.0721 39.8463 22.6407 40.4791C22.3818 40.8601 22.2309 41.3203 22.2237 41.8164C22.2165 43.1393 23.2806 44.2106 24.6035 44.2178C25.4304 44.225 26.1566 43.808 26.5879 43.1753Z" fill="url(#paint12_linear_1046_6750)"/>
<path d="M29.1043 20.4334C28.716 12.9199 27.6951 8.27526 26.4368 8.26807C26.2355 8.26807 26.0342 8.40467 25.8401 8.6707C24.4884 10.5185 23.4387 18.5209 23.3955 28.1194C23.3811 32.2105 23.5249 36.1506 23.8269 39.3141C24.0786 39.235 24.3518 39.1919 24.625 39.1919C24.7472 39.1919 24.8694 39.1991 24.9845 39.2206C24.7113 36.3015 24.5531 32.7066 24.5747 28.8097C24.6106 20.2824 25.4518 13.1716 26.5375 11.5323C26.6885 11.3022 26.8539 11.18 27.012 11.18C27.7382 11.18 28.45 14.4802 28.8598 18.4849C28.9533 19.4124 29.0612 20.419 29.1043 20.4334Z" fill="url(#paint13_linear_1046_6750)"/>
<path d="M27.954 44.498C27.7599 45.2458 27.5442 45.7994 27.3285 46.1302C27.1775 46.353 27.0193 46.4681 26.8611 46.4681C26.4945 46.4681 26.1206 45.6844 25.8114 44.534C25.797 44.4909 25.7683 44.3614 25.7323 44.2104C25.3872 44.3758 24.999 44.4621 24.6035 44.4621C24.6538 44.6778 24.7042 44.8719 24.7186 44.9438C25.1859 46.8851 25.718 47.9995 26.2716 47.9995C26.4873 47.9995 26.6958 47.8485 26.8971 47.5538C27.2782 47.0001 27.6377 45.9432 27.954 44.498C27.954 44.5052 27.954 44.5124 27.9468 44.5196C27.954 44.5052 27.954 44.5052 27.954 44.498Z" fill="url(#paint14_linear_1046_6750)"/>
<path d="M2.89035 13.7251C2.94787 13.8617 2.95505 14.0199 2.91911 14.2068C2.88316 14.3937 2.80407 14.5807 2.68903 14.7676C2.57399 14.9546 2.423 15.0984 2.23606 15.1918C2.05632 15.2853 1.855 15.3141 1.6393 15.2925C1.4236 15.2709 1.20791 15.1918 0.992208 15.0624L0.683042 14.8755C0.345116 14.667 0.136608 14.4153 0.0431395 14.1277C-0.0431395 13.8401 0 13.5525 0.172558 13.2649C0.330736 13.0133 0.517674 12.8551 0.733371 12.7832C0.956259 12.7113 1.18634 12.7257 1.4236 12.8407L1.29418 13.042C1.10006 12.963 0.920309 12.9486 0.754941 13.0061C0.589573 13.0636 0.452965 13.1858 0.337926 13.3728C0.194128 13.5957 0.165368 13.8257 0.244457 14.063C0.323546 14.2931 0.510484 14.5016 0.80527 14.6813L1.09287 14.8611C1.2798 14.9761 1.45955 15.048 1.6393 15.0696C1.81905 15.0984 1.98442 15.0696 2.1354 15.0049C2.28639 14.933 2.40862 14.8251 2.50209 14.6742C2.60994 14.4944 2.67465 14.329 2.70341 14.1709C2.71779 14.063 2.7106 13.9767 2.68903 13.9048L2.06351 13.5166L1.66087 14.1637L1.48831 14.0558L2.02037 13.2002L2.89035 13.7251Z" fill="#CD7AEE"/>
<path d="M5.44322 9.89295L4.55886 10.842L4.94711 11.6042L4.77456 11.7911L3.42285 9.05892L3.58103 8.89355L6.40667 10.0439L6.23411 10.2309L5.44322 9.89295ZM4.46539 10.6479L5.2419 9.81386L3.71764 9.17396L4.46539 10.6479Z" fill="#CD7AEE"/>
<path d="M8.51224 7.9594L9.64105 7.11818L9.76328 7.28355L8.44034 8.26857L6.73633 5.98218L6.93046 5.83838L8.51224 7.9594Z" fill="#CD7AEE"/>
<path d="M13.1651 4.42917L12.0076 5.00436L12.101 5.85277L11.871 5.96781L11.5762 2.93367L11.7847 2.83301L14.0136 4.91089L13.7907 5.01874L13.1651 4.42917ZM11.9788 4.78866L13.007 4.28537L11.8062 3.14217L11.9788 4.78866Z" fill="#CD7AEE"/>
<path d="M18.2334 2.59592C18.2837 2.8907 18.2406 3.14235 18.104 3.34367C17.9674 3.54499 17.7589 3.68879 17.4641 3.76787C17.2628 3.82539 17.0686 3.8182 16.8817 3.76068C16.6948 3.70317 16.5366 3.58813 16.4 3.42995C16.2634 3.26458 16.1627 3.06326 16.098 2.826L15.9973 2.4665C15.9326 2.22204 15.9111 1.99197 15.947 1.78346C15.983 1.56776 16.062 1.3952 16.1987 1.24421C16.3281 1.10042 16.5006 0.992567 16.7091 0.942238C17.0039 0.863149 17.2556 0.877528 17.4713 0.992567C17.687 1.10761 17.8451 1.29454 17.9458 1.56776L17.7085 1.63247C17.5216 1.1795 17.2052 1.01414 16.7595 1.13637C16.5078 1.20107 16.3353 1.35206 16.2418 1.58214C16.1411 1.81222 16.1411 2.08543 16.2274 2.41617L16.3209 2.7541C16.4072 3.07045 16.551 3.30772 16.7451 3.45152C16.9392 3.60251 17.1621 3.64565 17.4066 3.57375C17.651 3.50904 17.8164 3.40119 17.9099 3.2502C18.0033 3.09921 18.0321 2.90508 17.9961 2.66063L18.2334 2.59592Z" fill="#CD7AEE"/>
<path d="M22.9498 0.201318L21.9791 0.280407L22.1876 2.91911L21.9504 2.94068L21.7419 0.301976L20.7712 0.381065L20.7568 0.179748L22.9354 0L22.9498 0.201318Z" fill="#CD7AEE"/>
<path d="M26.207 2.93336L25.9697 2.91179L26.1926 0.0717773L26.4299 0.0933471L26.207 2.93336Z" fill="#CD7AEE"/>
<path d="M30.5143 1.97731L31.5784 0.999486L31.8588 1.07138L30.6078 2.21458L31.2117 3.84669L30.9313 3.77479L30.4209 2.36557L29.3136 3.37935L29.0332 3.31464L30.3274 2.14268L29.745 0.553711L30.0254 0.62561L30.5143 1.97731Z" fill="#CD7AEE"/>
<path d="M36.9412 6.11109L38.4367 7.04578L38.3288 7.21833L36.5889 6.13266L36.6823 5.98167L39.4217 4.78814L38.034 3.91816L38.1419 3.74561L39.7884 4.77376L39.6949 4.91756L36.9412 6.11109Z" fill="#CD7AEE"/>
<path d="M42.917 9.39715C42.7372 9.59127 42.5503 9.72788 42.349 9.81416C42.1477 9.90044 41.9463 9.92201 41.7522 9.88606C41.5581 9.85011 41.3783 9.75664 41.213 9.60566C40.9685 9.38277 40.8535 9.10955 40.8607 8.79319C40.875 8.47684 41.0188 8.17486 41.2921 7.88008L41.4934 7.66438C41.6731 7.47744 41.8601 7.33364 42.0614 7.25455C42.2627 7.16827 42.464 7.1467 42.6653 7.18265C42.8595 7.2186 43.0392 7.31207 43.2046 7.45587C43.3628 7.60686 43.4706 7.77223 43.5209 7.96635C43.5713 8.16048 43.5641 8.35461 43.4994 8.55593C43.4347 8.75724 43.3196 8.95856 43.1471 9.1455L42.917 9.39715ZM42.9529 9.0017C43.183 8.75005 43.3124 8.49841 43.3268 8.25395C43.3484 8.0023 43.2549 7.78661 43.0536 7.60686C42.8595 7.42711 42.6366 7.35521 42.3921 7.39116C42.1477 7.42711 41.9032 7.57091 41.6659 7.82975L41.4646 8.04544C41.2345 8.2899 41.1123 8.54155 41.0907 8.79319C41.0692 9.04484 41.1626 9.26054 41.3568 9.44748C41.5581 9.63441 41.781 9.70631 42.0254 9.66317C42.2699 9.62722 42.5144 9.47624 42.7444 9.2174L42.9529 9.0017Z" fill="#CD7AEE"/>
<path d="M45.195 14.2077L45.0512 14.0136L46.0722 11.2599L44.095 12.6835L43.9512 12.4893L46.2663 10.8213L46.4101 11.0154L45.3892 13.7763L47.3664 12.3456L47.503 12.5397L45.195 14.2077Z" fill="#CD7AEE"/>
<path d="M48.5899 17.666L48.0291 16.4581L46.9722 16.947L47.6121 18.3418L47.4251 18.4281L46.6846 16.8175L49.2729 15.624L50.0135 17.2274L49.8266 17.3137L49.1867 15.9332L48.2088 16.3862L48.7696 17.5941L48.5899 17.666Z" fill="#CD7AEE"/>
<defs>
<linearGradient id="paint0_linear_1046_6750" x1="9.4743" y1="21.6593" x2="14.2578" y2="21.6593" gradientUnits="userSpaceOnUse">
<stop stop-color="#31C3FF"/>
<stop offset="1" stop-color="#BC35FE"/>
</linearGradient>
<linearGradient id="paint1_linear_1046_6750" x1="13.4727" y1="31.2662" x2="40.4948" y2="31.2662" gradientUnits="userSpaceOnUse">
<stop stop-color="#31C3FF"/>
<stop offset="1" stop-color="#BC35FE"/>
</linearGradient>
<linearGradient id="paint2_linear_1046_6750" x1="7.67786" y1="18.333" x2="11.6004" y2="18.333" gradientUnits="userSpaceOnUse">
<stop stop-color="#31C3FF"/>
<stop offset="1" stop-color="#BC35FE"/>
</linearGradient>
<linearGradient id="paint3_linear_1046_6750" x1="12.2654" y1="21.6591" x2="29.3281" y2="13.534" gradientUnits="userSpaceOnUse">
<stop stop-color="#B20461"/>
<stop offset="1" stop-color="#F38F02"/>
</linearGradient>
<linearGradient id="paint4_linear_1046_6750" x1="20.6939" y1="42.1366" x2="37.7567" y2="34.0114" gradientUnits="userSpaceOnUse">
<stop stop-color="#B20461"/>
<stop offset="1" stop-color="#F38F02"/>
</linearGradient>
<linearGradient id="paint5_linear_1046_6750" x1="16.6344" y1="31.6701" x2="30.5173" y2="25.0091" gradientUnits="userSpaceOnUse">
<stop stop-color="#B20461"/>
<stop offset="1" stop-color="#F38F02"/>
</linearGradient>
<linearGradient id="paint6_linear_1046_6750" x1="11.8661" y1="8.27481" x2="11.8661" y2="46.8632" gradientUnits="userSpaceOnUse">
<stop offset="1.1e-07" stop-color="#D576ED"/>
<stop offset="1" stop-color="#34C2FF"/>
</linearGradient>
<linearGradient id="paint7_linear_1046_6750" x1="26.9837" y1="8.27468" x2="26.9837" y2="46.8632" gradientUnits="userSpaceOnUse">
<stop offset="1.1e-07" stop-color="#D576ED"/>
<stop offset="1" stop-color="#34C2FF"/>
</linearGradient>
<linearGradient id="paint8_linear_1046_6750" x1="9.63916" y1="8.27487" x2="9.63916" y2="46.8634" gradientUnits="userSpaceOnUse">
<stop offset="1.1e-07" stop-color="#D576ED"/>
<stop offset="1" stop-color="#34C2FF"/>
</linearGradient>
<linearGradient id="paint9_linear_1046_6750" x1="36.3066" y1="8.2753" x2="36.3066" y2="46.8637" gradientUnits="userSpaceOnUse">
<stop offset="1.1e-07" stop-color="#D576ED"/>
<stop offset="1" stop-color="#34C2FF"/>
</linearGradient>
<linearGradient id="paint10_linear_1046_6750" x1="21.189" y1="8.27468" x2="21.189" y2="46.8632" gradientUnits="userSpaceOnUse">
<stop offset="1.1e-07" stop-color="#D576ED"/>
<stop offset="1" stop-color="#34C2FF"/>
</linearGradient>
<linearGradient id="paint11_linear_1046_6750" x1="38.5332" y1="8.27487" x2="38.5332" y2="46.8634" gradientUnits="userSpaceOnUse">
<stop offset="1.1e-07" stop-color="#D576ED"/>
<stop offset="1" stop-color="#34C2FF"/>
</linearGradient>
<linearGradient id="paint12_linear_1046_6750" x1="24.6135" y1="8.27541" x2="24.6135" y2="46.8639" gradientUnits="userSpaceOnUse">
<stop offset="1.1e-07" stop-color="#D576ED"/>
<stop offset="1" stop-color="#34C2FF"/>
</linearGradient>
<linearGradient id="paint13_linear_1046_6750" x1="26.2508" y1="8.2695" x2="26.2508" y2="46.8581" gradientUnits="userSpaceOnUse">
<stop offset="1.1e-07" stop-color="#D576ED"/>
<stop offset="1" stop-color="#34C2FF"/>
</linearGradient>
<linearGradient id="paint14_linear_1046_6750" x1="26.2781" y1="8.2753" x2="26.2781" y2="46.8639" gradientUnits="userSpaceOnUse">
<stop offset="1.1e-07" stop-color="#D576ED"/>
<stop offset="1" stop-color="#34C2FF"/>
</linearGradient>
</defs>
</svg>
